<?xml version="1.0" standalone="no"?>
<!DOCTYPE svg PUBLIC "-//W3C//DTD SVG 20010904//EN"
 "http://www.w3.org/TR/2001/REC-SVG-20010904/DTD/svg10.dtd">
<svg version="1.0" xmlns="http://www.w3.org/2000/svg"
 width="930.000000pt" height="930.000000pt" viewBox="0 0 930.000000 930.000000"
 preserveAspectRatio="xMidYMid meet">
<metadata>
Created by potrace 1.11, written by Peter Selinger 2001-2013
</metadata>
<g transform="translate(0.000000,930.000000) scale(0.100000,-0.100000)"
fill="#000000" stroke="none">
<path d="M0 4650 l0 -4650 4650 0 4650 0 0 4650 0 4650 -4650 0 -4650 0 0
-4650z m7638 -1494 l-3 -1494 -400 130 c-220 72 -404 134 -409 138 -11 11 -11
5429 0 5440 5 4 189 67 409 138 l400 130 3 -1494 c1 -822 1 -2166 0 -2988z
m-870 3912 c-10 -6 -10 -8 -1 -8 10 0 13 -65 13 -280 0 -259 -2 -280 -18 -281
-16 -1 -16 -2 0 -6 16 -4 18 -27 18 -284 l0 -279 -23 -1 -22 -2 22 -4 23 -4 0
-280 0 -279 -43 -2 -42 -1 43 -4 42 -4 0 -135 0 -134 -27 -1 -28 -2 27 -4 28
-4 0 -280 0 -279 -68 -2 -67 -2 67 -3 68 -4 0 -279 c0 -215 -3 -280 -13 -281
-9 0 -9 -2 0 -6 10 -3 13 -102 13 -424 0 -390 -2 -419 -18 -420 -16 -1 -16 -2
0 -6 16 -4 18 -27 18 -284 0 -214 -3 -279 -13 -280 -9 0 -9 -2 1 -6 9 -3 12
-42 12 -144 0 -127 -1 -138 -17 -133 -17 5 -17 5 0 -6 15 -10 17 -28 17 -145
0 -74 -3 -135 -7 -135 -5 0 -150 47 -323 103 l-315 103 -3 124 c-2 92 1 125
10 132 10 6 10 8 0 8 -9 0 -12 110 -12 520 0 485 2 520 18 521 16 1 16 2 0 6
-17 4 -18 31 -18 394 l0 389 28 1 27 2 -27 4 -28 4 0 125 0 124 143 2 142 2
-142 3 -143 4 0 389 0 390 28 1 27 2 -27 4 -28 4 0 520 c0 409 3 519 12 520
10 0 10 2 1 6 -10 3 -13 96 -13 393 l0 389 172 55 c95 31 241 78 323 105 l150
49 3 -136 c2 -102 -1 -137 -10 -144z m-698 -78 l0 -119 -82 -25 c-241 -72
-429 -126 -438 -126 -6 0 -10 41 -10 110 l0 109 258 85 c141 47 260 85 265 85
4 1 7 -53 7 -119z m-600 -185 l0 -104 -82 -25 c-46 -14 -143 -43 -216 -64
l-133 -40 3 101 3 101 205 67 c113 37 208 68 213 68 4 1 7 -46 7 -104z m600
-75 c0 -116 -1 -120 -22 -125 -13 -4 -131 -34 -263 -69 l-240 -62 -3 109 c-1
60 -1 111 1 114 4 4 506 151 520 152 4 1 7 -53 7 -119z m-1120 -84 l0 -93 -77
-23 c-43 -13 -120 -35 -170 -50 l-93 -28 0 89 0 88 168 55 c92 30 168 55 170
55 1 1 2 -41 2 -93z m520 -81 l0 -104 -37 -10 c-21 -5 -110 -28 -198 -51 -88
-23 -168 -44 -177 -46 -16 -5 -18 4 -18 94 l0 99 198 57 c108 31 202 59 207
61 6 2 13 4 18 4 4 1 7 -46 7 -104z m-962 -57 l-3 -82 -130 -38 c-71 -21 -136
-38 -142 -38 -18 0 -18 136 -1 147 12 7 253 90 271 92 4 1 7 -36 5 -81z m1562
-37 c0 -105 -2 -120 -17 -125 -10 -3 -121 -28 -248 -56 -126 -28 -238 -54
-247 -56 -16 -5 -18 5 -18 108 l0 114 258 66 c141 37 260 67 265 67 4 1 7 -53
7 -118z m-1120 -51 l0 -89 -37 -10 c-21 -6 -98 -26 -170 -45 l-133 -35 0 89 0
89 38 10 c20 6 89 26 152 45 63 19 123 34 133 35 15 1 17 -10 17 -89z m-820
-29 l0 -70 -87 -26 c-49 -14 -101 -30 -117 -35 -16 -6 -31 -10 -32 -10 -2 0
-4 31 -4 69 l0 68 108 36 c59 19 113 35 120 36 8 1 12 -19 12 -68z m1340 -66
c0 -100 -1 -105 -22 -110 -13 -3 -110 -25 -216 -49 l-193 -44 3 101 3 101 200
52 c110 29 206 53 213 53 9 1 12 -26 12 -104z m-960 -25 l0 -79 -37 -10 c-21
-5 -82 -21 -136 -35 -55 -14 -103 -26 -108 -26 -6 0 -9 33 -7 77 l3 76 130 38
c72 21 136 38 143 38 9 1 12 -21 12 -79z m-720 -14 l0 -63 -93 -27 c-51 -14
-96 -26 -100 -26 -4 0 -7 26 -7 58 l0 58 93 31 c50 17 95 32 100 32 4 1 7 -28
7 -63z m2280 -75 c0 -105 -2 -120 -17 -125 -20 -5 -496 -96 -507 -96 -4 0 -5
51 -4 112 l3 113 250 56 c138 31 256 57 263 58 9 1 12 -29 12 -118z m-1120
-10 c0 -77 -3 -90 -17 -95 -10 -3 -81 -19 -158 -36 -77 -17 -146 -33 -152 -35
-10 -3 -13 18 -13 84 l0 88 153 40 c83 23 160 41 170 42 15 1 17 -9 17 -88z
m-822 -3 l-3 -73 -100 -27 c-144 -38 -136 -40 -133 39 l3 66 110 33 c61 17
114 32 118 33 4 1 7 -32 5 -71z m-640 -4 l-3 -57 -80 -23 c-44 -13 -81 -24
-82 -24 -2 0 -3 24 -3 53 l0 53 78 26 c42 14 81 27 85 27 4 1 7 -24 5 -55z
m1982 -108 l0 -105 -52 -10 c-73 -15 -369 -71 -374 -71 -2 0 -4 45 -4 99 l0
100 58 11 c31 7 122 27 202 45 80 18 151 34 158 34 9 1 12 -26 12 -103z m-960
11 l0 -84 -137 -30 c-76 -17 -142 -28 -146 -24 -4 5 -7 39 -5 77 l3 69 140 37
c77 20 141 37 143 37 1 1 2 -36 2 -82z m-720 10 l0 -64 -82 -22 c-46 -12 -91
-25 -101 -27 -16 -5 -18 1 -15 57 l3 62 95 28 c52 15 96 28 98 28 1 1 2 -28 2
-62z m-570 5 l0 -48 -53 -17 c-81 -26 -87 -24 -87 26 l0 43 63 21 c34 12 65
22 70 22 4 1 7 -21 7 -47z m-240 -75 l0 -44 -55 -15 -55 -15 0 42 c0 41 1 42
48 57 26 9 50 17 55 17 4 1 7 -19 7 -42z m508 -19 l-3 -51 -65 -18 c-99 -28
-100 -27 -100 31 l0 49 63 20 c34 10 72 20 85 20 22 1 23 -2 20 -51z m642 -18
c0 -38 -3 -70 -6 -70 -3 0 -55 -11 -116 -25 -61 -14 -112 -25 -114 -25 -2 0
-4 31 -4 68 l0 68 103 26 c147 37 137 40 137 -42z m818 -22 l-3 -93 -145 -27
c-80 -15 -155 -30 -167 -33 -23 -5 -23 -4 -23 84 l0 89 73 16 c39 9 110 24
157 35 47 11 91 20 98 20 10 1 12 -21 10 -91z m1122 -28 c0 -116 -1 -120 -22
-125 -36 -8 -475 -75 -492 -75 -14 0 -16 17 -16 110 0 61 1 110 3 111 26 6
506 97 515 98 9 1 12 -29 12 -119z m-3310 22 c0 -36 -2 -40 -39 -50 -52 -16
-51 -17 -51 22 0 34 7 40 88 65 1 1 2 -16 2 -37z m460 -22 c0 -49 0 -49 -38
-59 -21 -6 -52 -14 -70 -17 l-32 -6 0 44 0 45 68 21 c37 11 68 20 70 21 1 1 2
-21 2 -49z m570 -30 c0 -57 -1 -60 -27 -66 -16 -3 -53 -12 -84 -20 -89 -22
-89 -22 -89 44 l0 57 78 22 c123 34 122 34 122 -37z m718 -32 l-3 -82 -138
-26 c-75 -15 -139 -24 -142 -22 -9 10 -5 141 5 147 8 5 250 62 273 64 4 1 7
-36 5 -81z m962 -43 c0 -58 -3 -105 -7 -105 -5 -1 -102 -16 -216 -34 l-208
-33 3 101 3 100 195 37 c107 20 203 37 213 38 15 1 17 -10 17 -104z m-2910 60
c0 -19 -4 -35 -9 -35 -5 0 -23 -3 -40 -6 -29 -6 -31 -4 -31 20 0 21 7 30 33
41 45 20 47 19 47 -20z m420 -25 c0 -38 -1 -40 -42 -50 -24 -6 -49 -13 -55
-15 -9 -3 -13 9 -13 39 0 41 2 43 38 53 67 19 72 17 72 -27z m508 -32 l-3 -52
-70 -18 c-99 -25 -97 -26 -93 34 l3 53 60 17 c33 9 70 17 83 17 22 1 23 -2 20
-51z m-1108 3 c0 -21 -6 -30 -22 -35 -35 -9 -38 -8 -38 19 0 17 7 29 23 35 34
14 37 12 37 -19z m1750 -41 c0 -80 15 -69 -142 -99 l-98 -18 0 68 c0 63 2 69
23 74 12 3 58 14 102 24 122 29 115 32 115 -49z m-1370 12 c0 -38 -1 -39 -45
-49 l-45 -10 0 37 c0 34 3 37 38 47 20 6 40 11 45 12 4 0 7 -16 7 -37z m2190
-65 l0 -93 -147 -23 c-82 -12 -158 -25 -170 -28 -23 -5 -23 -3 -23 85 l0 89
123 23 c67 12 138 26 157 30 62 14 60 17 60 -83z m-1732 26 l-3 -47 -55 -12
c-81 -19 -80 -19 -80 31 0 44 0 44 43 55 23 6 47 13 52 15 38 14 46 5 43 -42z
m-998 18 c0 -17 -18 -31 -41 -31 -10 0 -12 33 -2 43 14 15 43 7 43 -12z m3850
-111 c0 -66 -1 -120 -2 -121 -2 0 -121 -15 -265 -33 l-263 -32 0 112 0 112 68
11 c185 31 429 69 445 70 15 1 17 -11 17 -119z m-3510 75 c0 -19 -4 -35 -9
-35 -5 0 -23 -3 -40 -6 -29 -6 -31 -4 -31 20 0 21 7 30 33 41 45 20 47 19 47
-20z m1230 -25 c0 -54 -2 -60 -22 -65 -35 -8 -169 -35 -174 -35 -2 0 -4 27 -4
60 0 54 2 60 23 65 12 3 49 11 82 19 98 23 95 24 95 -44z m-1722 13 c-4 -22
-48 -31 -48 -10 0 19 10 27 32 27 13 0 18 -6 16 -17z m910 -25 c-3 -44 0 -42
-80 -62 -27 -6 -28 -5 -28 37 0 44 1 44 43 54 69 17 68 17 65 -29z m1532 -48
l0 -79 -32 -6 c-95 -16 -225 -35 -240 -35 -16 0 -18 10 -18 74 l0 75 53 10
c260 54 237 58 237 -39z m-2130 36 c0 -23 -16 -36 -46 -36 -17 0 -19 46 -1 53
30 13 47 7 47 -17z m-453 -11 c-4 -8 -13 -15 -22 -15 -21 0 -19 28 3 32 22 5
26 2 19 -17z m1563 -28 l0 -54 -72 -13 c-40 -7 -79 -15 -85 -17 -10 -4 -13 10
-13 50 l0 55 63 15 c107 25 107 25 107 -36z m-730 -2 c0 -31 -3 -35 -37 -44
-53 -15 -53 -15 -53 24 0 30 4 36 33 44 53 15 57 14 57 -24z m2710 -69 l0
-105 -42 -5 c-107 -15 -364 -46 -375 -46 -10 0 -13 26 -13 99 l0 98 118 18
c64 10 151 23 192 30 131 22 120 31 120 -89z m-3262 43 c-24 -15 -38 -10 -38
15 0 18 6 25 23 28 25 3 38 -29 15 -43z m1920 -31 l-3 -73 -100 -17 c-147 -25
-135 -29 -135 50 l0 68 113 21 c61 11 116 21 120 22 4 1 7 -32 5 -71z m-2328
52 c0 -5 -7 -10 -15 -10 -8 0 -15 5 -15 10 0 6 7 10 15 10 8 0 15 -4 15 -10z
m1420 -49 c0 -48 0 -48 -37 -54 -21 -4 -53 -9 -71 -13 l-33 -7 3 49 3 49 55
11 c83 18 80 19 80 -35z m-660 4 c0 -27 -4 -35 -17 -35 -10 0 -28 -3 -40 -6
-20 -6 -23 -3 -23 25 0 26 5 32 33 40 47 14 47 14 47 -24z m-490 5 c0 -15 -7
-20 -25 -20 -41 0 -30 37 13 39 6 1 12 -8 12 -19z m-390 6 c0 -3 -4 -8 -10
-11 -5 -3 -10 -1 -10 4 0 6 5 11 10 11 6 0 10 -2 10 -4z m3270 -101 c0 -62 -4
-95 -11 -95 -16 0 -258 -29 -296 -35 l-33 -6 0 89 0 89 113 17 c61 10 135 21
162 25 28 5 53 9 58 10 4 0 7 -42 7 -94z m-1970 41 c0 -43 -1 -44 -37 -50 -21
-4 -46 -9 -56 -12 -16 -5 -18 0 -15 38 3 43 3 43 53 55 28 6 51 12 53 12 1 1
2 -19 2 -43z m808 -18 l-3 -63 -70 -12 c-38 -6 -82 -12 -97 -12 -27 -1 -28 0
-28 57 l0 59 83 15 c128 24 118 27 115 -44z m-1858 37 c0 -8 -2 -15 -4 -15 -2
0 -11 -3 -20 -6 -10 -4 -16 -1 -16 9 0 14 13 24 33 26 4 1 7 -6 7 -14z m448
-12 c-2 -19 -10 -29 -30 -34 -26 -7 -28 -5 -28 21 0 19 6 30 18 33 38 10 43 7
40 -20z m-578 -22 c0 -12 -20 -25 -27 -18 -7 7 6 27 18 27 5 0 9 -4 9 -9z
m420 -15 c0 -17 -7 -25 -25 -28 -21 -4 -25 -1 -25 18 0 20 10 28 43 33 4 0 7
-10 7 -23z m538 -52 c-2 -1 -23 -6 -46 -10 l-42 -7 0 35 c0 33 2 36 43 44 l42
9 3 -33 c2 -19 2 -36 0 -38z m732 12 c0 -60 7 -56 -117 -72 l-53 -7 0 52 c0
56 -5 52 90 70 82 16 80 17 80 -43z m1020 -29 l0 -84 -137 -16 c-76 -10 -142
-17 -146 -17 -4 0 -7 35 -5 77 l3 78 140 21 c77 12 141 22 143 23 1 1 2 -37 2
-82z m1560 -47 c0 -116 -1 -120 -22 -124 -13 -3 -113 -12 -223 -21 -110 -9
-219 -18 -242 -21 l-43 -6 0 114 0 115 233 27 c127 15 239 29 247 30 51 12 50
14 50 -114z m-4390 96 c0 -3 -4 -8 -10 -11 -5 -3 -10 -1 -10 4 0 6 5 11 10 11
6 0 10 -2 10 -4z m390 -15 c0 -18 -33 -35 -44 -23 -12 11 -5 31 12 35 30 8 32
7 32 -12z m490 -20 c0 -34 -4 -38 -45 -42 -27 -4 -30 -1 -30 26 0 29 8 34 68
44 4 0 7 -12 7 -28z m660 -30 l0 -49 -47 -7 c-27 -3 -58 -9 -71 -12 -22 -5
-23 -3 -20 43 l3 49 55 11 c83 18 80 19 80 -35z m-1290 14 c0 -8 -9 -15 -20
-15 -20 0 -26 11 -13 23 12 13 33 7 33 -8z m2200 -55 c0 -38 -4 -70 -9 -70
-12 0 -155 -18 -198 -26 l-33 -5 0 70 0 69 73 12 c39 6 79 13 87 14 8 2 30 4
48 5 l32 1 0 -70z m-1750 30 c0 -19 -5 -30 -14 -30 -8 0 -21 -3 -30 -6 -12 -5
-16 1 -16 24 0 30 2 31 53 41 4 0 7 -12 7 -29z m3090 -85 c0 -60 -4 -105 -10
-105 -17 0 -355 -30 -387 -34 l-33 -5 0 100 c0 54 1 99 3 100 10 3 369 47 395
48 l32 1 0 -105z m-3670 80 c0 -8 -7 -15 -15 -15 -26 0 -18 20 13 29 1 1 2 -6
2 -14z m1180 -24 c0 -43 -1 -44 -73 -56 l-38 -6 3 43 c3 41 5 43 38 49 70 12
70 12 70 -30z m-762 -3 c-4 -31 -48 -39 -48 -10 0 20 12 30 38 31 8 1 12 -8
10 -21z m1572 -42 l0 -63 -62 -7 c-35 -4 -80 -10 -100 -13 l-38 -6 0 61 c0 61
0 61 33 67 49 8 140 23 155 24 8 1 12 -18 12 -63z m-2110 40 c0 -3 -4 -8 -10
-11 -5 -3 -10 -1 -10 4 0 6 5 11 10 11 6 0 10 -2 10 -4z m1080 -36 c0 -35 -3
-40 -22 -40 -13 0 -33 -3 -46 -6 -22 -6 -23 -4 -20 32 3 34 7 40 33 45 54 12
55 11 55 -31z m2190 -65 c0 -52 -3 -95 -7 -95 -14 0 -226 -19 -280 -26 l-53
-5 0 89 0 89 163 20 c89 11 165 21 170 22 4 0 7 -42 7 -94z m-2880 71 c0 -15
-37 -32 -47 -22 -3 3 -3 12 0 21 8 19 47 20 47 1z m1420 -50 l0 -54 -37 -6
c-21 -3 -59 -8 -85 -12 l-48 -6 0 55 0 55 68 9 c110 17 102 20 102 -41z m-932
12 c-3 -30 -6 -33 -41 -36 -37 -3 -38 -2 -35 24 2 20 10 30 28 35 47 13 51 11
48 -23z m-628 7 c0 -8 -9 -15 -20 -15 -20 0 -26 11 -13 23 12 13 33 7 33 -8z
m1290 -54 l0 -50 -47 -6 c-94 -12 -88 -15 -91 36 l-3 46 63 10 c35 6 66 11 71
12 4 0 7 -21 7 -48z m1290 -31 c0 -74 -1 -80 -22 -84 -38 -8 -253 -24 -260
-19 -14 8 -9 143 5 148 11 4 214 31 260 34 15 1 17 -9 17 -79z m-2710 60 c0
-5 -7 -10 -15 -10 -8 0 -15 5 -15 10 0 6 7 10 15 10 8 0 15 -4 15 -10z m580
-14 c0 -16 -7 -26 -22 -30 -36 -9 -38 -8 -38 24 0 27 3 30 30 30 25 0 30 -4
30 -24z m-162 -28 c-2 -15 -11 -24 -25 -26 -19 -3 -23 1 -23 22 0 21 5 26 26
26 21 0 25 -4 22 -22z m762 -23 c0 -36 -3 -45 -17 -45 -10 0 -35 -3 -55 -6
l-38 -7 0 42 c0 43 1 43 70 54 14 3 28 5 33 6 4 0 7 -19 7 -44z m1150 -34 c0
-81 8 -76 -143 -86 l-98 -7 3 68 3 69 95 11 c156 18 140 24 140 -55z m1940
-60 l0 -120 -52 -5 c-29 -3 -109 -8 -178 -11 -69 -3 -165 -8 -213 -12 l-88 -6
3 114 3 114 240 21 c132 12 250 22 263 23 22 1 22 -1 22 -118z m-4002 92 c-4
-22 -48 -31 -48 -10 0 19 10 27 32 27 13 0 18 -6 16 -17z m692 -27 c0 -35 -15
-46 -67 -46 -19 0 -23 5 -23 34 0 36 8 41 68 45 19 1 22 -4 22 -33z m1030 -40
l0 -64 -77 -7 c-43 -3 -88 -8 -101 -11 -22 -4 -23 -3 -20 58 l3 63 85 11 c47
6 91 12 98 13 8 1 12 -18 12 -63z m-1862 42 c-7 -19 -38 -22 -38 -4 0 10 9 16
21 16 12 0 19 -5 17 -12z m630 -30 c-3 -30 -6 -33 -40 -36 -35 -3 -38 -1 -38
23 0 26 24 43 63 44 15 1 18 -5 15 -31z m-758 13 c0 -12 -20 -25 -27 -18 -7 7
6 27 18 27 5 0 9 -4 9 -9z m3670 -95 l0 -103 -97 -7 c-54 -3 -151 -9 -215 -12
l-118 -7 0 102 0 101 33 1 c17 0 93 6 167 13 74 8 156 14 183 15 l47 1 0 -104z
m-1980 40 l0 -55 -42 -5 c-24 -3 -62 -7 -85 -10 l-43 -4 0 53 0 54 43 5 c23 3
53 7 67 10 61 9 60 10 60 -48z m-1112 17 c-2 -22 -9 -29 -30 -31 -24 -3 -28 0
-28 22 0 25 11 34 43 35 14 1 18 -5 15 -26z m-158 -23 c0 -11 -4 -20 -9 -20
-5 0 -16 -3 -25 -6 -12 -5 -16 0 -16 20 0 21 5 26 25 26 18 0 25 -5 25 -20z
m1000 -24 c0 -50 -10 -56 -92 -56 l-48 0 0 44 c0 49 3 51 98 55 l42 1 0 -44z
m1730 -45 l0 -89 -72 -6 c-40 -3 -117 -8 -170 -11 l-98 -6 0 89 0 90 113 9
c61 6 138 11 170 11 l57 2 0 -89z m-2880 49 c0 -15 -7 -20 -25 -20 -24 0 -34
18 -18 33 15 15 43 7 43 -13z m910 -29 c0 -35 -3 -39 -31 -45 -70 -14 -79 -10
-79 33 0 43 7 48 73 50 37 1 37 1 37 -38z m-1050 15 c0 -21 -20 -30 -33 -17
-9 9 -8 14 3 21 21 14 30 12 30 -4z m2580 -65 l0 -79 -82 -6 c-46 -3 -110 -7
-143 -8 l-60 -2 -3 76 -3 76 78 7 c43 3 87 7 98 9 11 2 41 4 68 5 l47 1 0 -79z
m-1752 -6 c-2 -1 -22 -5 -45 -8 l-43 -5 0 38 c0 38 0 39 43 42 41 3 42 2 45
-31 2 -18 2 -34 0 -36z m-958 45 c0 -5 -7 -10 -15 -10 -8 0 -15 5 -15 10 0 6
7 10 15 10 8 0 15 -4 15 -10z m2330 -60 c0 -48 -4 -72 -12 -74 -7 -3 -61 -7
-120 -10 l-108 -7 0 70 0 69 88 7 c48 3 96 7 107 9 11 2 26 4 33 5 8 1 12 -19
12 -69z m-2450 50 c0 -5 -5 -10 -11 -10 -5 0 -7 5 -4 10 3 6 8 10 11 10 2 0 4
-4 4 -10z m878 -22 c-3 -30 -6 -33 -40 -36 -36 -3 -38 -2 -38 27 0 30 10 37
58 40 20 1 23 -3 20 -31z m-178 -18 c0 -27 -3 -30 -30 -30 -25 0 -30 4 -30 24
0 23 4 26 53 35 4 0 7 -12 7 -29z m1410 -39 l0 -58 -52 -7 c-29 -3 -74 -6
-100 -6 l-48 0 0 59 0 60 38 4 c20 2 65 4 100 5 l62 2 0 -59z m-1570 24 c0
-20 -5 -25 -25 -25 -33 0 -35 37 -2 43 12 2 23 5 25 6 1 0 2 -10 2 -24z m1270
-39 c0 -63 -5 -66 -108 -66 l-63 0 3 53 3 52 70 6 c39 3 76 6 83 7 8 1 12 -14
12 -52z m-1420 24 c0 -15 -7 -20 -25 -20 -41 0 -30 37 13 39 6 1 12 -8 12 -19z
m4000 -109 l0 -118 -77 -7 c-42 -3 -161 -6 -265 -6 l-188 0 0 110 c0 61 3 110
8 111 10 1 440 26 485 28 l37 1 0 -119z m-4140 94 c0 -8 -9 -15 -20 -15 -20 0
-26 11 -13 23 12 13 33 7 33 -8z m1288 -32 l-3 -48 -67 -3 -68 -3 0 45 c0 49
3 51 98 55 l43 1 -3 -47z m-1418 17 c0 -5 -7 -10 -15 -10 -8 0 -15 5 -15 10 0
6 7 10 15 10 8 0 15 -4 15 -10z m1180 -35 l0 -45 -55 0 -55 0 0 39 c0 42 5 45
83 50 26 1 27 -1 27 -44z m-1300 25 c0 -5 -4 -10 -10 -10 -5 0 -10 5 -10 10 0
6 5 10 10 10 6 0 10 -4 10 -10z m3790 -90 c0 -72 -4 -102 -12 -105 -7 -2 -104
-5 -215 -7 l-203 -4 0 98 c0 86 2 98 18 99 85 7 263 16 330 17 l82 2 0 -100z
m-2710 50 l0 -40 -45 0 c-45 0 -45 0 -45 34 0 36 8 41 68 45 19 1 22 -4 22
-39z m-200 -9 c0 -24 -5 -31 -30 -36 -37 -8 -50 0 -50 29 0 30 7 36 47 36 30
0 33 -3 33 -29z m2390 -60 l0 -88 -61 -7 c-34 -3 -111 -6 -170 -6 l-109 0 0
90 0 89 93 4 c50 1 127 4 170 5 l77 2 0 -89z m-2570 44 c0 -21 -5 -25 -30 -25
-25 0 -30 4 -30 25 0 21 5 25 30 25 25 0 30 -4 30 -25z m2130 -60 l0 -85 -145
0 -145 0 0 75 c0 53 4 75 13 76 6 1 66 5 132 9 66 3 126 7 133 8 9 2 12 -21
12 -83z m-2290 50 c0 -20 -5 -25 -25 -25 -20 0 -25 5 -25 25 0 20 5 25 25 25
20 0 25 -5 25 -25z m-152 -12 c-2 -10 -12 -18 -23 -18 -11 0 -21 8 -23 18 -3
13 3 17 23 17 20 0 26 -4 23 -17z m2062 -52 l0 -70 -120 -3 -120 -3 0 67 c0
78 -8 74 148 77 l92 1 0 -69z m-2200 44 c0 -8 -9 -15 -20 -15 -11 0 -20 7 -20
15 0 8 9 15 20 15 11 0 20 -7 20 -15z m-130 -10 c0 -8 -7 -15 -15 -15 -8 0
-15 7 -15 15 0 8 7 15 15 15 8 0 15 -7 15 -15z m1990 -45 c0 -56 -1 -60 -23
-60 -13 0 -58 -3 -100 -6 l-77 -7 0 61 c0 39 4 62 13 65 6 3 51 6 100 6 l87 1
0 -60z m-2110 40 c0 -5 -4 -10 -10 -10 -5 0 -10 5 -10 10 0 6 5 10 10 10 6 0
10 -4 10 -10z m1808 -52 l-3 -53 -82 -3 -83 -3 0 56 0 55 86 0 85 0 -3 -52z
m-268 -8 l0 -50 -70 0 -70 0 0 44 c0 50 4 52 93 55 l47 1 0 -50z m-240 -10 l0
-40 -55 0 -55 0 0 40 0 40 55 0 55 0 0 -40z m-220 -5 c0 -35 0 -35 -45 -35
-45 0 -45 0 -45 35 0 35 0 35 45 35 45 0 45 0 45 -35z m-200 -5 c0 -27 -3 -30
-30 -30 -16 0 -33 0 -37 -1 -5 0 -10 7 -11 16 -7 31 7 45 43 45 32 0 35 -2 35
-30z m-180 -10 c0 -27 -3 -30 -30 -30 -27 0 -30 3 -30 30 0 27 3 30 30 30 27
0 30 -3 30 -30z m-160 -5 c0 -20 -5 -25 -25 -25 -20 0 -25 5 -25 25 0 20 5 25
25 25 20 0 25 -5 25 -25z m-150 -6 c0 -15 -5 -20 -22 -17 -34 5 -37 38 -4 38
20 0 26 -5 26 -21z m-140 -4 c0 -8 -9 -15 -20 -15 -11 0 -20 7 -20 15 0 8 9
15 20 15 11 0 20 -7 20 -15z m-250 -5 c0 -5 -4 -10 -10 -10 -5 0 -10 5 -10 10
0 6 5 10 10 10 6 0 10 -4 10 -10z m120 0 c0 -5 -7 -10 -15 -10 -8 0 -15 5 -15
10 0 6 7 10 15 10 8 0 15 -4 15 -10z m4270 -110 l0 -120 -234 0 c-128 0 -248
3 -265 6 l-31 7 0 108 0 108 158 4 c86 1 205 4 265 5 l107 2 0 -120z m-600 1
c0 -55 -4 -103 -10 -106 -5 -3 -102 -3 -215 1 l-205 7 0 99 0 98 215 0 215 0
0 -99z m-520 -1 l0 -90 -170 0 -170 0 0 90 0 90 170 0 170 0 0 -90z m-440 0
l0 -81 -142 3 -143 3 -3 64 c-2 35 -1 70 2 77 4 11 37 14 146 14 l140 0 0 -80z
m-380 0 l0 -70 -120 0 -120 0 0 70 0 70 120 0 120 0 0 -70z m-340 0 l0 -60
-100 0 -100 0 0 60 0 60 100 0 100 0 0 -60z m-570 0 l0 -50 -70 0 -70 0 0 43
c0 24 3 47 7 50 3 4 35 7 70 7 l63 0 0 -50z m268 -2 l-3 -53 -40 -3 c-22 -2
-59 -1 -82 3 l-43 6 0 50 0 49 86 0 85 0 -3 -52z m-728 2 l0 -40 -45 0 -45 0
0 40 0 40 45 0 45 0 0 -40z m220 0 l0 -40 -55 0 -55 0 0 40 0 40 55 0 55 0 0
-40z m-600 0 c0 -27 -3 -30 -30 -30 -27 0 -30 3 -30 30 0 27 3 30 30 30 27 0
30 -3 30 -30z m180 0 c0 -28 -2 -30 -40 -30 -38 0 -40 2 -40 30 0 28 2 30 40
30 38 0 40 -2 40 -30z m-490 0 c0 -15 -7 -20 -25 -20 -24 0 -34 18 -18 33 15
15 43 7 43 -13z m150 0 c0 -15 -7 -20 -25 -20 -18 0 -25 5 -25 20 0 15 7 20
25 20 18 0 25 -5 25 -20z m-540 0 c0 -5 -4 -10 -10 -10 -5 0 -10 5 -10 10 0 6
5 10 10 10 6 0 10 -4 10 -10z m120 0 c0 -5 -7 -10 -15 -10 -8 0 -15 5 -15 10
0 6 7 10 15 10 8 0 15 -4 15 -10z m128 -2 c-3 -7 -11 -13 -18 -13 -7 0 -15 6
-17 13 -3 7 4 12 17 12 13 0 20 -5 18 -12z m-248 -108 c0 -5 -4 -10 -10 -10
-5 0 -10 5 -10 10 0 6 5 10 10 10 6 0 10 -4 10 -10z m120 -6 c0 -17 -22 -14
-28 4 -2 7 3 12 12 12 9 0 16 -7 16 -16z m128 -2 c2 -7 -6 -12 -17 -12 -21 0
-27 11 -14 24 9 9 26 2 31 -12z m140 -5 c3 -12 -3 -17 -22 -17 -25 0 -35 18
-19 34 12 12 38 2 41 -17z m143 13 c5 0 9 -9 9 -20 0 -15 -7 -20 -25 -20 -20
0 -25 5 -25 26 0 20 4 25 16 20 9 -3 20 -6 25 -6z m169 -25 c0 -21 -5 -25 -30
-25 -25 0 -30 4 -30 25 0 21 5 25 30 25 25 0 30 -4 30 -25z m180 -6 c0 -29 -2
-30 -37 -27 -33 3 -38 7 -41 31 -3 26 -1 27 37 27 39 0 41 -1 41 -31z m200 -4
c0 -35 0 -35 -45 -35 -45 0 -45 0 -45 35 0 35 0 35 45 35 45 0 45 0 45 -35z
m220 -10 c0 -49 -8 -53 -79 -39 -28 6 -31 10 -31 45 l0 39 55 0 55 0 0 -45z
m238 -8 l3 -48 -68 3 -68 3 -3 48 -3 48 68 -3 68 -3 3 -48z m223 43 l49 0 0
-56 0 -57 -61 7 c-34 3 -73 6 -85 6 -22 0 -24 4 -24 48 0 58 6 65 44 58 16 -3
50 -6 77 -6z m349 -66 c0 -64 -1 -66 -22 -60 -13 3 -58 6 -100 6 l-78 0 0 60
0 60 100 0 100 0 0 -66z m340 -10 l0 -76 -31 6 c-17 3 -71 6 -120 6 l-89 0 0
70 0 70 120 0 120 0 0 -76z m319 70 l61 -7 0 -79 0 -79 -132 6 c-73 4 -139 8
-145 10 -14 5 -19 136 -6 148 8 9 141 9 222 1z m369 -4 l132 0 0 -94 0 -95
-52 5 c-29 2 -106 7 -170 10 l-118 6 0 90 0 91 38 -7 c20 -3 97 -6 170 -6z
m630 -6 c21 -6 22 -11 22 -105 0 -54 -3 -100 -7 -102 -5 -2 -101 1 -215 6
l-208 10 0 99 0 98 193 0 c105 0 202 -3 215 -6z m524 -4 l98 0 0 -122 0 -121
-137 7 c-76 3 -195 9 -265 13 l-128 6 0 115 0 115 167 -6 c91 -4 210 -7 265
-7z m-4292 -80 c0 -5 -4 -10 -10 -10 -5 0 -10 5 -10 10 0 6 5 10 10 10 6 0 10
-4 10 -10z m120 -11 c0 -5 -7 -9 -15 -9 -15 0 -20 12 -9 23 8 8 24 -1 24 -14z
m130 -4 c0 -8 -9 -15 -20 -15 -11 0 -20 7 -20 15 0 8 9 15 20 15 11 0 20 -7
20 -15z m140 -8 c0 -20 -9 -25 -31 -20 -28 8 -24 33 6 33 14 0 25 -6 25 -13z
m150 -12 c0 -20 -5 -25 -25 -25 -20 0 -25 5 -25 25 0 20 5 25 25 25 20 0 25
-5 25 -25z m160 -13 c0 -26 -3 -28 -30 -24 -24 3 -30 9 -30 28 0 20 5 24 30
24 26 0 30 -4 30 -28z m180 -14 c0 -28 -2 -29 -37 -26 -27 2 -39 8 -41 21 -7
33 4 43 42 39 32 -4 36 -7 36 -34z m169 26 c27 -6 31 -10 31 -41 0 -34 0 -34
-42 -31 -42 3 -43 4 -46 41 -3 40 0 42 57 31z m220 -10 c28 -6 31 -10 31 -45
0 -39 0 -39 -39 -39 -61 0 -71 7 -71 51 0 43 10 47 79 33z m240 -10 c29 -6 31
-9 31 -51 l0 -44 -67 3 -68 3 -3 48 -3 47 39 0 c22 0 54 -3 71 -6z m240 -10
l61 -7 0 -55 0 -55 -52 7 c-29 3 -68 6 -85 6 l-33 0 0 55 c0 63 -5 60 109 49z
m314 -14 l47 0 0 -65 0 -66 -67 6 c-38 3 -83 8 -100 11 l-33 5 0 61 0 61 53
-7 c28 -3 73 -6 100 -6z m335 -16 l52 -5 0 -71 0 -70 -77 6 c-43 4 -97 9 -120
12 l-43 5 0 68 0 67 68 -3 c37 -2 91 -6 120 -9z m-2398 -14 c0 -5 -4 -10 -10
-10 -5 0 -10 5 -10 10 0 6 5 10 10 10 6 0 10 -4 10 -10z m2792 0 l38 0 0 -86
c0 -76 -2 -85 -17 -80 -10 2 -63 7 -118 11 -165 10 -155 4 -155 92 l0 76 107
-6 c58 -4 123 -7 145 -7z m-2672 -10 c0 -5 -7 -10 -15 -10 -8 0 -15 5 -15 10
0 6 7 10 15 10 8 0 15 -4 15 -10z m3003 -6 l147 -6 0 -94 0 -95 -47 6 c-48 5
-271 25 -285 25 -5 0 -8 41 -8 90 0 88 0 90 23 86 12 -3 88 -8 170 -12z
m-2873 -10 c0 -9 -7 -14 -17 -12 -25 5 -28 28 -4 28 12 0 21 -6 21 -16z m140
-15 c0 -15 -5 -20 -22 -17 -34 5 -37 38 -4 38 20 0 26 -5 26 -21z m3270 3
l125 -7 3 -99 c1 -55 -1 -102 -5 -106 -4 -4 -98 1 -208 11 -110 10 -203 18
-207 19 -5 0 -8 45 -8 100 l0 100 88 -6 c48 -3 143 -9 212 -12z m-3120 -17 c0
-26 -7 -29 -34 -19 -27 10 -20 44 9 44 20 0 25 -5 25 -25z m160 -15 c0 -19 -5
-30 -14 -30 -30 0 -46 13 -46 36 0 20 5 24 30 24 27 0 30 -3 30 -30z m3455 10
c105 -6 201 -10 213 -10 21 0 22 -3 22 -120 l0 -120 -32 0 c-18 0 -132 9 -253
20 -121 11 -226 20 -232 20 -10 0 -13 30 -13 114 l0 115 53 -5 c28 -2 138 -9
242 -14z m-3287 0 c7 0 12 -13 12 -31 0 -29 -2 -30 -37 -27 -27 2 -39 8 -41
21 -6 32 6 50 31 43 12 -3 28 -6 35 -6z m212 -51 c0 -38 -2 -41 -22 -35 -13 3
-33 6 -45 6 -20 0 -23 5 -23 35 0 35 0 35 45 35 l45 0 0 -41z m196 21 c22 0
24 -4 24 -46 0 -38 -3 -45 -16 -40 -9 3 -33 6 -55 6 l-39 0 0 46 0 47 31 -7
c17 -3 42 -6 55 -6z m-1276 -20 c0 -5 -4 -10 -10 -10 -5 0 -10 5 -10 10 0 6 5
10 10 10 6 0 10 -4 10 -10z m1494 4 l46 -7 0 -48 0 -48 -37 5 c-110 15 -103
10 -103 59 0 50 2 51 94 39z m-1374 -20 c0 -17 -22 -14 -28 4 -2 7 3 12 12 12
9 0 16 -7 16 -16z m130 -20 c0 -16 -26 -19 -35 -4 -3 6 -4 14 0 20 8 13 35 1
35 -16z m1508 20 l52 -7 0 -54 0 -55 -67 7 c-104 10 -103 9 -103 66 0 49 0 49
33 49 17 0 56 -3 85 -6z m-1370 -37 c3 -14 -1 -18 -20 -15 -12 2 -24 11 -26
21 -3 14 1 18 20 15 12 -2 24 -11 26 -21z m1645 17 l77 -7 0 -65 0 -64 -42 5
c-24 4 -69 9 -100 13 l-58 6 0 59 c0 68 -9 64 123 53z m-1493 -41 c0 -19 -4
-24 -16 -19 -9 3 -20 6 -25 6 -5 0 -9 11 -9 24 0 19 4 22 25 18 19 -3 25 -11
25 -29z m1858 11 l52 -6 0 -69 c0 -80 13 -75 -140 -58 l-100 12 0 70 0 69 68
-6 c37 -4 91 -9 120 -12z m-1720 0 c15 -4 22 -14 22 -30 0 -20 -5 -24 -30 -24
-27 0 -30 3 -30 30 0 32 2 33 38 24z m180 -20 c28 -8 33 -64 5 -64 -45 0 -63
12 -63 41 0 30 12 35 58 23z m1920 -11 l52 -6 0 -78 c0 -92 18 -85 -160 -64
-69 8 -126 15 -127 15 -2 0 -3 34 -3 76 l0 77 93 -7 c50 -4 116 -9 145 -13z
m-2778 -13 c0 -5 -4 -10 -10 -10 -5 0 -10 5 -10 10 0 6 5 10 10 10 6 0 10 -4
10 -10z m1066 0 c9 0 14 -12 14 -35 0 -32 -2 -35 -29 -35 -49 0 -61 9 -61 47
0 34 1 35 31 29 17 -3 38 -6 45 -6z m2204 -117 c0 -51 -1 -93 -2 -93 -2 0 -77
9 -168 20 -91 11 -166 20 -167 20 -2 0 -3 39 -3 88 l0 87 170 -14 170 -15 0
-93z m-3150 97 c0 -5 -7 -10 -15 -10 -8 0 -15 5 -15 10 0 6 7 10 15 10 8 0 15
-4 15 -10z m1168 -6 c7 -2 12 -20 12 -45 0 -41 0 -41 -31 -35 -17 3 -42 6 -55
6 -22 0 -24 4 -24 45 l0 45 43 -6 c23 -3 48 -7 55 -10z m-1043 -4 c3 -5 4 -14
0 -20 -8 -13 -35 -1 -35 16 0 16 26 19 35 4z m3360 -18 l180 -17 3 -94 c1 -52
1 -100 -2 -106 -3 -8 -56 -5 -192 11 -104 13 -199 23 -211 24 -22 0 -23 3 -23
100 l0 100 33 -1 c17 0 113 -8 212 -17z m-3217 -15 c3 -14 -1 -18 -20 -15 -12
2 -24 11 -26 21 -3 14 1 18 20 15 12 -2 24 -11 26 -21z m1106 17 l46 -7 0 -49
c0 -49 0 -49 -27 -44 -16 3 -47 8 -70 11 l-43 7 0 44 c0 49 2 50 94 38z m-970
-20 c27 -10 20 -44 -9 -44 -20 0 -25 5 -25 25 0 26 7 29 34 19z m1229 -10 l57
-6 0 -55 0 -56 -52 7 c-125 16 -118 11 -118 73 0 54 0 55 28 49 15 -3 53 -8
85 -12z m2392 -14 c121 -11 226 -20 233 -20 9 0 12 -31 12 -120 0 -116 -1
-120 -22 -120 -24 0 -423 47 -475 55 l-33 6 0 109 0 110 33 0 c17 0 131 -9
252 -20z m-3459 0 c9 0 14 -11 14 -28 0 -26 -3 -28 -30 -24 -26 4 -30 9 -30
34 0 23 4 29 16 24 9 -3 22 -6 30 -6z m1359 -18 l60 -7 3 -63 c3 -71 13 -67
-113 -49 l-80 12 -3 63 -3 62 38 -5 c21 -3 65 -9 98 -13z m-2045 -2 c0 -5 -4
-10 -10 -10 -5 0 -10 5 -10 10 0 6 5 10 10 10 6 0 10 -4 10 -10z m864 -6 c21
-8 22 -64 2 -64 -37 0 -66 20 -66 45 0 20 5 25 24 25 13 0 31 -3 40 -6z m-744
-14 c0 -5 -7 -10 -15 -10 -8 0 -15 5 -15 10 0 6 7 10 15 10 8 0 15 -4 15 -10z
m933 -15 c23 -5 27 -10 27 -41 0 -35 -1 -36 -31 -30 -17 3 -38 6 -45 6 -10 0
-14 13 -14 39 0 42 -3 40 63 26z m1307 2 l85 -12 3 -73 c3 -71 2 -73 -20 -68
-13 3 -59 10 -103 16 -122 17 -115 12 -115 86 l0 64 33 -1 c17 0 70 -6 117
-12z m-2112 -14 c2 -8 -5 -13 -17 -13 -12 0 -21 6 -21 16 0 18 31 15 38 -3z
m142 -35 c0 -15 -4 -18 -22 -12 -30 9 -31 10 -25 28 8 21 47 8 47 -16z m873
17 c35 -6 37 -8 37 -45 0 -44 -3 -45 -72 -34 -37 6 -38 7 -38 51 0 37 3 44 18
40 9 -3 34 -8 55 -12z m1427 -5 c153 -17 140 -8 140 -101 l0 -80 -42 6 c-24 4
-88 14 -143 23 l-100 17 -3 64 c-4 79 1 93 30 87 13 -3 66 -10 118 -16z
m-2152 -38 c3 -20 0 -23 -20 -20 -15 2 -24 11 -26 26 -3 20 0 23 20 20 15 -2
24 -11 26 -26z m993 2 c10 -6 13 -94 2 -94 -3 0 -35 5 -70 11 l-63 11 0 45 0
46 61 -7 c33 -3 65 -8 70 -12z m-1531 -4 c0 -5 -2 -10 -4 -10 -3 0 -8 5 -11
10 -3 6 -1 10 4 10 6 0 11 -4 11 -10z m3130 -8 l135 -17 3 -92 c1 -51 -1 -93
-6 -93 -12 0 -270 39 -304 46 -28 6 -28 6 -28 90 l0 84 33 -1 c17 0 93 -8 167
-17z m-2432 -26 c3 -26 1 -28 -20 -23 -13 4 -26 7 -30 7 -5 0 -8 12 -8 26 0
22 4 25 28 22 21 -2 28 -9 30 -32z m-580 5 c3 -8 -1 -12 -9 -9 -7 2 -15 10
-17 17 -3 8 1 12 9 9 7 -2 15 -10 17 -17z m1622 6 l65 -12 3 -53 c4 -60 2 -61
-103 -39 l-60 13 -3 52 c-3 60 -7 58 98 39z m-876 -13 c10 -4 16 -18 16 -36 0
-28 -2 -29 -32 -23 -45 10 -48 13 -48 41 0 19 5 24 24 24 13 0 31 -3 40 -6z
m2746 -27 l175 -22 3 -102 3 -103 -27 0 c-24 0 -333 45 -381 55 -22 5 -23 10
-23 104 l0 99 38 -5 c20 -3 116 -15 212 -26z m-3360 7 c0 -9 -7 -14 -17 -12
-25 5 -28 28 -4 28 12 0 21 -6 21 -16z m1749 -5 c121 -19 111 -12 111 -79 0
-70 5 -68 -117 -44 l-83 17 0 58 c0 66 -5 64 89 48z m-933 -9 c10 0 14 -13 14
-41 0 -34 -3 -40 -17 -35 -10 3 -30 8 -45 12 -24 5 -28 11 -28 41 0 34 1 35
31 29 17 -3 38 -6 45 -6z m-676 -20 c0 -21 -8 -24 -34 -14 -25 10 -19 34 9 34
18 0 25 -5 25 -20z m910 -67 c0 -38 -3 -44 -17 -39 -10 3 -35 8 -55 12 -37 6
-38 8 -38 48 l0 43 55 -10 55 -10 0 -44z m1035 47 c123 -17 115 -11 115 -91 0
-38 -3 -69 -7 -69 -3 0 -57 10 -120 21 l-113 21 0 70 c0 68 1 70 23 65 12 -3
58 -11 102 -17z m1790 -10 c132 -16 246 -30 253 -30 9 0 12 -31 12 -120 0
-118 0 -120 -22 -119 -13 0 -131 17 -263 37 l-240 37 -3 113 c-2 86 0 112 10
112 7 0 121 -14 253 -30z m-3587 -7 c2 -13 -1 -23 -6 -23 -24 0 -42 14 -42 32
0 29 44 20 48 -9z m-418 -14 c0 -5 -7 -9 -15 -9 -8 0 -15 7 -15 15 0 9 6 12
15 9 8 -4 15 -10 15 -15z m564 5 c20 -8 21 -54 2 -54 -30 0 -46 13 -46 36 0
24 14 30 44 18z m786 -9 c70 -13 70 -13 70 -61 0 -50 -4 -52 -85 -31 l-50 13
-3 48 c-3 42 -1 47 15 43 10 -3 34 -8 53 -12z m1248 -21 l112 -18 0 -82 0 -82
-77 15 c-43 8 -107 20 -143 26 l-65 12 -3 79 -3 78 33 -5 c18 -3 84 -14 146
-23z m-2468 -10 c0 -16 -26 -19 -35 -4 -3 6 -4 14 0 20 8 13 35 1 35 -16z
m627 -4 c2 0 3 -14 3 -31 0 -29 -1 -30 -32 -24 -44 10 -48 13 -48 39 0 32 7
36 43 25 18 -5 33 -9 34 -9z m868 -13 l60 -13 3 -53 3 -54 -47 7 c-26 3 -64
11 -85 16 -39 11 -39 11 -39 60 0 58 2 58 105 37z m-1357 -20 c3 -14 -1 -18
-20 -15 -12 2 -24 11 -26 21 -3 14 1 18 20 15 12 -2 24 -11 26 -21z m-393 3
c3 -5 1 -10 -4 -10 -6 0 -11 5 -11 10 0 6 2 10 4 10 3 0 8 -4 11 -10z m1058
-6 c23 -5 27 -11 27 -41 l0 -35 -37 7 c-51 9 -53 11 -53 51 0 29 3 34 18 30 9
-3 29 -8 45 -12z m2044 -4 c71 -11 138 -23 151 -25 21 -5 22 -10 22 -95 0 -67
-3 -90 -13 -90 -12 0 -252 44 -304 55 -22 5 -23 10 -23 90 0 100 -16 94 167
65z m-2566 -10 c5 0 9 -12 9 -26 0 -20 -4 -25 -16 -20 -9 3 -20 6 -25 6 -5 0
-9 12 -9 26 0 20 4 25 16 20 9 -3 20 -6 25 -6z m1497 -15 c40 -8 75 -15 78
-15 2 0 4 -27 4 -60 0 -70 1 -70 -120 -42 l-75 18 -3 62 c-3 61 -2 62 20 57
13 -3 56 -12 96 -20z m-1908 -5 c0 -5 -7 -10 -15 -10 -8 0 -15 5 -15 10 0 6 7
10 15 10 8 0 15 -4 15 -10z m1138 -10 c41 -10 42 -12 42 -50 0 -44 -2 -45 -66
-29 -44 11 -44 12 -44 55 0 30 4 42 13 39 6 -2 31 -9 55 -15z m-580 -6 c16 -5
22 -14 22 -34 0 -26 -2 -28 -27 -21 -21 5 -29 15 -31 34 -4 29 0 30 36 21z
m2894 -24 c106 -17 199 -33 206 -35 8 -3 12 -33 12 -105 0 -89 -2 -100 -17
-100 -10 0 -107 16 -215 37 l-198 37 0 98 c0 56 4 98 10 98 5 0 96 -14 202
-30z m-3338 14 c9 -3 16 -13 16 -21 0 -10 -6 -13 -16 -9 -9 3 -18 6 -20 6 -2
0 -4 7 -4 15 0 17 2 18 24 9z m2109 -25 l107 -22 0 -68 c0 -81 9 -78 -135 -46
l-100 22 -3 68 c-2 50 0 67 10 67 7 0 61 -10 121 -21z m-893 2 c19 -5 47 -12
63 -15 25 -6 27 -10 27 -55 l0 -49 -67 17 -68 17 -3 47 c-3 51 -3 51 48 38z
m-577 -18 c10 -6 9 -63 -2 -63 -4 0 -22 5 -40 11 -25 9 -31 16 -31 41 0 28 2
29 33 23 17 -4 35 -9 40 -12z m-485 -16 c3 -14 -1 -18 -20 -15 -12 2 -24 11
-26 21 -3 14 1 18 20 15 12 -2 24 -11 26 -21z m3760 -42 c122 -19 227 -35 232
-35 6 0 10 -48 10 -120 0 -89 -3 -120 -12 -120 -7 0 -127 21 -265 47 l-253 47
0 113 0 114 33 -6 c17 -3 132 -21 255 -40z m-2413 13 c79 -18 75 -15 75 -74 0
-48 -2 -55 -17 -50 -10 3 -48 13 -85 22 l-68 16 0 54 c0 61 -10 58 95 32z
m960 -3 c72 -14 131 -25 133 -25 8 0 0 -160 -9 -160 -8 0 -166 34 -256 55 -21
5 -23 11 -23 80 0 55 4 75 13 75 7 0 71 -11 142 -25z m-2171 9 c9 -3 16 -17
16 -30 0 -20 -3 -22 -22 -15 -13 4 -24 18 -26 30 -3 22 5 25 32 15z m548 -10
c10 -6 11 -74 2 -74 -4 0 -24 5 -45 12 -36 10 -39 14 -39 46 0 34 0 34 37 27
21 -4 41 -9 45 -11z m-398 -34 c19 -7 26 -17 26 -35 0 -28 0 -28 -34 -15 -19
7 -26 17 -26 35 0 28 0 28 34 15z m582 -11 c44 -11 44 -12 44 -55 l0 -43 -47
14 c-27 8 -51 15 -55 15 -5 0 -8 18 -8 40 0 44 2 45 66 29z m777 -14 l77 -17
0 -65 c0 -57 -2 -64 -17 -59 -10 3 -36 9 -58 15 -22 5 -59 15 -82 21 l-43 11
0 60 c0 58 1 61 23 56 12 -3 57 -13 100 -22z m1078 -15 c85 -16 155 -30 157
-30 1 0 2 -42 2 -93 l0 -94 -147 33 c-81 18 -157 35 -170 39 -22 5 -23 10 -23
90 0 64 3 85 13 85 8 0 83 -13 168 -30z m-2257 -10 c20 -7 26 -16 26 -40 0
-35 0 -35 -45 -16 -27 12 -35 21 -35 40 0 28 13 32 54 16z m621 -16 l65 -16 0
-50 c0 -36 -4 -49 -12 -45 -7 2 -39 12 -70 21 l-58 17 0 44 c0 25 2 45 5 45 3
0 35 -7 70 -16z m915 -37 l55 -12 3 -74 c3 -66 1 -72 -15 -67 -10 3 -47 12
-83 21 -36 9 -82 21 -102 26 l-38 10 0 68 0 69 63 -14 c34 -8 87 -20 117 -27z
m1255 -34 l140 -28 3 -102 c2 -93 1 -103 -15 -103 -10 1 -106 20 -213 44
l-195 43 -3 100 -3 101 73 -14 c40 -8 136 -26 213 -41z m-2592 31 c24 -5 27
-11 27 -44 l0 -38 -42 13 c-40 11 -43 15 -46 49 -3 33 -1 37 15 32 10 -3 30
-8 46 -12z m637 -13 c19 -6 54 -15 78 -21 l42 -11 0 -55 c0 -62 10 -60 -109
-25 l-56 17 -3 52 c-3 56 -3 56 48 43z m1015 -50 l120 -28 3 -82 c3 -75 1 -82
-15 -77 -10 3 -65 17 -123 31 -158 38 -150 32 -150 115 0 84 -9 82 165 41z
m-1427 -2 c18 -7 22 -16 22 -49 0 -22 -1 -40 -3 -40 -2 0 -27 7 -55 15 -52 16
-52 16 -52 56 0 41 0 41 33 34 17 -4 42 -11 55 -16z m832 -117 l0 -62 -27 6
c-16 4 -59 17 -98 29 l-70 21 -3 61 -3 61 101 -26 100 -27 0 -63z m2025 63
c132 -25 243 -45 248 -45 4 0 7 -54 7 -120 0 -92 -3 -120 -13 -120 -7 0 -124
25 -260 55 -135 30 -249 55 -252 55 -3 0 -5 52 -5 116 0 105 2 115 18 110 9
-3 125 -26 257 -51z m-2655 -2 l60 -18 0 -47 c0 -27 -4 -48 -8 -48 -4 0 -36 9
-70 21 l-62 21 0 44 c0 24 5 44 10 44 6 0 38 -8 70 -17z m1624 -28 c85 -19
157 -35 160 -35 3 0 6 -42 6 -94 l0 -94 -167 42 -168 42 -3 87 c-2 56 1 87 8
87 6 0 80 -16 164 -35z m-809 -14 c39 -11 89 -24 113 -31 l42 -11 0 -71 c0
-68 -1 -70 -22 -65 -13 4 -67 19 -120 34 l-98 28 0 68 c0 37 3 67 8 67 4 0 39
-9 77 -19z m-522 -42 l37 -10 0 -54 c0 -30 -3 -55 -7 -55 -5 0 -43 12 -85 26
l-78 26 0 53 0 53 48 -14 c26 -8 64 -19 85 -25z m1799 -44 c111 -25 205 -48
209 -51 13 -8 11 -204 -1 -204 -6 0 -103 23 -215 51 l-205 51 0 99 c0 55 3 99
6 99 3 0 96 -20 206 -45z m-742 -132 l0 -82 -52 16 c-29 8 -93 27 -143 42
l-90 26 -3 64 c-2 35 -1 70 2 77 4 9 38 4 145 -24 l141 -36 0 -83z m-795 102
l70 -21 3 -62 c2 -34 -1 -62 -5 -62 -4 0 -50 14 -100 31 l-93 31 0 59 0 59 28
-6 c15 -4 59 -17 97 -29z m2103 -92 l252 -57 0 -118 c0 -84 -3 -118 -12 -118
-10 0 -443 109 -500 126 -16 5 -18 19 -18 115 0 80 3 109 13 109 6 0 126 -25
265 -57z m-1695 -23 c4 0 7 -31 7 -70 0 -49 -4 -70 -12 -70 -7 0 -60 16 -118
34 l-105 35 -3 69 -3 70 113 -34 c62 -18 116 -34 121 -34z m665 28 l162 -42 0
-93 c0 -51 -1 -93 -2 -93 -2 0 -77 22 -168 49 l-165 48 -3 86 c-1 48 1 87 5
87 4 0 81 -19 171 -42z m-418 -98 c73 -22 135 -40 137 -40 2 0 3 -36 3 -80 0
-44 -3 -80 -7 -80 -5 0 -69 20 -143 44 l-135 43 -3 76 c-2 43 1 77 6 77 5 0
69 -18 142 -40z m1077 -71 c22 -8 23 -13 23 -109 0 -73 -3 -100 -12 -100 -7 0
-103 27 -213 59 l-200 59 -3 100 -3 100 193 -50 c105 -28 202 -54 215 -59z
m-650 -50 l153 -44 0 -93 c0 -92 0 -93 -22 -86 -13 4 -88 28 -168 53 l-145 47
-3 88 c-3 81 -1 88 15 84 10 -3 87 -25 170 -49z m1014 -36 l259 -66 0 -119 c0
-88 -3 -118 -12 -118 -7 0 -125 33 -263 73 l-250 73 -3 112 c-1 62 0 112 4
112 3 0 123 -30 265 -67z m-574 -88 c104 -30 198 -59 211 -65 21 -9 22 -15 22
-110 0 -55 -3 -100 -7 -100 -5 0 -101 30 -215 67 l-208 67 0 98 c0 54 2 98 5
98 3 0 89 -25 192 -55z m581 -165 l252 -74 0 -118 c0 -65 -3 -118 -7 -118 -5
-1 -124 36 -265 82 l-258 83 0 113 c0 87 3 113 13 110 6 -3 126 -38 265 -78z"/>
<path d="M6548 6723 c7 -3 16 -2 19 1 4 3 -2 6 -13 5 -11 0 -14 -3 -6 -6z"/>
<path d="M6508 6713 c7 -3 16 -2 19 1 4 3 -2 6 -13 5 -11 0 -14 -3 -6 -6z"/>
<path d="M6718 6483 c7 -3 16 -2 19 1 4 3 -2 6 -13 5 -11 0 -14 -3 -6 -6z"/>
<path d="M6668 6473 c7 -3 16 -2 19 1 4 3 -2 6 -13 5 -11 0 -14 -3 -6 -6z"/>
<path d="M6628 6463 c7 -3 16 -2 19 1 4 3 -2 6 -13 5 -11 0 -14 -3 -6 -6z"/>
<path d="M6578 6453 c7 -3 16 -2 19 1 4 3 -2 6 -13 5 -11 0 -14 -3 -6 -6z"/>
<path d="M6538 6443 c7 -3 16 -2 19 1 4 3 -2 6 -13 5 -11 0 -14 -3 -6 -6z"/>
<path d="M6488 6433 c7 -3 16 -2 19 1 4 3 -2 6 -13 5 -11 0 -14 -3 -6 -6z"/>
<path d="M6448 6423 c7 -3 16 -2 19 1 4 3 -2 6 -13 5 -11 0 -14 -3 -6 -6z"/>
<path d="M6398 6413 c7 -3 16 -2 19 1 4 3 -2 6 -13 5 -11 0 -14 -3 -6 -6z"/>
<path d="M6358 6403 c7 -3 16 -2 19 1 4 3 -2 6 -13 5 -11 0 -14 -3 -6 -6z"/>
<path d="M6728 6203 c7 -3 16 -2 19 1 4 3 -2 6 -13 5 -11 0 -14 -3 -6 -6z"/>
<path d="M6678 6193 c7 -3 16 -2 19 1 4 3 -2 6 -13 5 -11 0 -14 -3 -6 -6z"/>
<path d="M6618 6183 c7 -3 16 -2 19 1 4 3 -2 6 -13 5 -11 0 -14 -3 -6 -6z"/>
<path d="M6568 6173 c7 -3 16 -2 19 1 4 3 -2 6 -13 5 -11 0 -14 -3 -6 -6z"/>
<path d="M6518 6163 c7 -3 16 -2 19 1 4 3 -2 6 -13 5 -11 0 -14 -3 -6 -6z"/>
<path d="M6458 6153 c7 -3 16 -2 19 1 4 3 -2 6 -13 5 -11 0 -14 -3 -6 -6z"/>
<path d="M6408 6143 c7 -3 16 -2 19 1 4 3 -2 6 -13 5 -11 0 -14 -3 -6 -6z"/>
<path d="M6358 6133 c7 -3 16 -2 19 1 4 3 -2 6 -13 5 -11 0 -14 -3 -6 -6z"/>
<path d="M6308 6123 c7 -3 16 -2 19 1 4 3 -2 6 -13 5 -11 0 -14 -3 -6 -6z"/>
<path d="M6248 6113 c7 -3 16 -2 19 1 4 3 -2 6 -13 5 -11 0 -14 -3 -6 -6z"/>
<path d="M6198 6103 c7 -3 16 -2 19 1 4 3 -2 6 -13 5 -11 0 -14 -3 -6 -6z"/>
<path d="M6148 6093 c7 -3 16 -2 19 1 4 3 -2 6 -13 5 -11 0 -14 -3 -6 -6z"/>
<path d="M6678 5913 c6 -2 18 -2 25 0 6 3 1 5 -13 5 -14 0 -19 -2 -12 -5z"/>
<path d="M6618 5903 c6 -2 18 -2 25 0 6 3 1 5 -13 5 -14 0 -19 -2 -12 -5z"/>
<path d="M6548 5893 c6 -2 18 -2 25 0 6 3 1 5 -13 5 -14 0 -19 -2 -12 -5z"/>
<path d="M6488 5883 c6 -2 18 -2 25 0 6 3 1 5 -13 5 -14 0 -19 -2 -12 -5z"/>
<path d="M6418 5873 c6 -2 18 -2 25 0 6 3 1 5 -13 5 -14 0 -19 -2 -12 -5z"/>
<path d="M6358 5863 c6 -2 18 -2 25 0 6 3 1 5 -13 5 -14 0 -19 -2 -12 -5z"/>
<path d="M6288 5853 c6 -2 18 -2 25 0 6 3 1 5 -13 5 -14 0 -19 -2 -12 -5z"/>
<path d="M6228 5843 c6 -2 18 -2 25 0 6 3 1 5 -13 5 -14 0 -19 -2 -12 -5z"/>
<path d="M6168 5833 c7 -3 16 -2 19 1 4 3 -2 6 -13 5 -11 0 -14 -3 -6 -6z"/>
<path d="M6693 5633 c9 -2 23 -2 30 0 6 3 -1 5 -18 5 -16 0 -22 -2 -12 -5z"/>
<path d="M6613 5623 c9 -2 23 -2 30 0 6 3 -1 5 -18 5 -16 0 -22 -2 -12 -5z"/>
<path d="M6528 5613 c6 -2 18 -2 25 0 6 3 1 5 -13 5 -14 0 -19 -2 -12 -5z"/>
<path d="M6448 5603 c6 -2 18 -2 25 0 6 3 1 5 -13 5 -14 0 -19 -2 -12 -5z"/>
<path d="M6358 5593 c6 -2 18 -2 25 0 6 3 1 5 -13 5 -14 0 -19 -2 -12 -5z"/>
<path d="M6278 5583 c6 -2 18 -2 25 0 6 3 1 5 -13 5 -14 0 -19 -2 -12 -5z"/>
<path d="M6198 5573 c6 -2 18 -2 25 0 6 3 1 5 -13 5 -14 0 -19 -2 -12 -5z"/>
<path d="M6598 5343 c12 -2 30 -2 40 0 9 3 -1 5 -23 4 -22 0 -30 -2 -17 -4z"/>
<path d="M6483 5333 c9 -2 25 -2 35 0 9 3 1 5 -18 5 -19 0 -27 -2 -17 -5z"/>
<path d="M6368 5323 c12 -2 30 -2 40 0 9 3 -1 5 -23 4 -22 0 -30 -2 -17 -4z"/>
<path d="M6248 5313 c12 -2 30 -2 40 0 9 3 -1 5 -23 4 -22 0 -30 -2 -17 -4z"/>
<path d="M6568 5063 c18 -2 45 -2 60 0 15 2 0 4 -33 4 -33 0 -45 -2 -27 -4z"/>
<path d="M6368 5053 c18 -2 45 -2 60 0 15 2 0 4 -33 4 -33 0 -45 -2 -27 -4z"/>
<path d="M6178 5043 c18 -2 45 -2 60 0 15 2 0 4 -33 4 -33 0 -45 -2 -27 -4z"/>
<path d="M6423 4783 c48 -2 126 -2 175 0 48 1 8 3 -88 3 -96 0 -136 -2 -87 -3z"/>
<path d="M6293 4243 c15 -2 39 -2 55 0 15 2 2 4 -28 4 -30 0 -43 -2 -27 -4z"/>
<path d="M6488 4233 c18 -2 45 -2 60 0 15 2 0 4 -33 4 -33 0 -45 -2 -27 -4z"/>
<path d="M6678 4223 c18 -2 45 -2 60 0 15 2 0 4 -33 4 -33 0 -45 -2 -27 -4z"/>
<path d="M6193 3983 c9 -2 25 -2 35 0 9 3 1 5 -18 5 -19 0 -27 -2 -17 -5z"/>
<path d="M6313 3973 c9 -2 25 -2 35 0 9 3 1 5 -18 5 -19 0 -27 -2 -17 -5z"/>
<path d="M6428 3963 c12 -2 30 -2 40 0 9 3 -1 5 -23 4 -22 0 -30 -2 -17 -4z"/>
<path d="M6548 3953 c12 -2 30 -2 40 0 9 3 -1 5 -23 4 -22 0 -30 -2 -17 -4z"/>
<path d="M6658 3943 c12 -2 30 -2 40 0 9 3 -1 5 -23 4 -22 0 -30 -2 -17 -4z"/>
<path d="M6198 3453 c6 -2 18 -2 25 0 6 3 1 5 -13 5 -14 0 -19 -2 -12 -5z"/>
<path d="M6268 3443 c7 -3 16 -2 19 1 4 3 -2 6 -13 5 -11 0 -14 -3 -6 -6z"/>
<path d="M6328 3433 c6 -2 18 -2 25 0 6 3 1 5 -13 5 -14 0 -19 -2 -12 -5z"/>
<path d="M6398 3423 c7 -3 16 -2 19 1 4 3 -2 6 -13 5 -11 0 -14 -3 -6 -6z"/>
<path d="M6458 3413 c6 -2 18 -2 25 0 6 3 1 5 -13 5 -14 0 -19 -2 -12 -5z"/>
<path d="M6518 3403 c6 -2 18 -2 25 0 6 3 1 5 -13 5 -14 0 -19 -2 -12 -5z"/>
<path d="M6588 3393 c6 -2 18 -2 25 0 6 3 1 5 -13 5 -14 0 -19 -2 -12 -5z"/>
<path d="M6648 3383 c6 -2 18 -2 25 0 6 3 1 5 -13 5 -14 0 -19 -2 -12 -5z"/>
<path d="M6718 3373 c6 -2 18 -2 25 0 6 3 1 5 -13 5 -14 0 -19 -2 -12 -5z"/>
<path d="M6228 3183 c7 -3 16 -2 19 1 4 3 -2 6 -13 5 -11 0 -14 -3 -6 -6z"/>
<path d="M6278 3173 c7 -3 16 -2 19 1 4 3 -2 6 -13 5 -11 0 -14 -3 -6 -6z"/>
<path d="M6328 3163 c7 -3 16 -2 19 1 4 3 -2 6 -13 5 -11 0 -14 -3 -6 -6z"/>
<path d="M6388 3153 c7 -3 16 -2 19 1 4 3 -2 6 -13 5 -11 0 -14 -3 -6 -6z"/>
<path d="M6438 3143 c7 -3 16 -2 19 1 4 3 -2 6 -13 5 -11 0 -14 -3 -6 -6z"/>
<path d="M6488 3133 c7 -3 16 -2 19 1 4 3 -2 6 -13 5 -11 0 -14 -3 -6 -6z"/>
<path d="M6548 3123 c7 -3 16 -2 19 1 4 3 -2 6 -13 5 -11 0 -14 -3 -6 -6z"/>
<path d="M6598 3113 c7 -3 16 -2 19 1 4 3 -2 6 -13 5 -11 0 -14 -3 -6 -6z"/>
<path d="M6648 3103 c7 -3 16 -2 19 1 4 3 -2 6 -13 5 -11 0 -14 -3 -6 -6z"/>
<path d="M6698 3093 c6 -2 18 -2 25 0 6 3 1 5 -13 5 -14 0 -19 -2 -12 -5z"/>
<path d="M6378 2883 c7 -3 16 -2 19 1 4 3 -2 6 -13 5 -11 0 -14 -3 -6 -6z"/>
<path d="M6468 2863 c7 -3 16 -2 19 1 4 3 -2 6 -13 5 -11 0 -14 -3 -6 -6z"/>
<path d="M6558 2843 c7 -3 16 -2 19 1 4 3 -2 6 -13 5 -11 0 -14 -3 -6 -6z"/>
<path d="M6648 2823 c7 -3 16 -2 19 1 4 3 -2 6 -13 5 -11 0 -14 -3 -6 -6z"/>
<path d="M6738 2803 c7 -3 16 -2 19 1 4 3 -2 6 -13 5 -11 0 -14 -3 -6 -6z"/>
<path d="M6258 2643 c7 -3 16 -2 19 1 4 3 -2 6 -13 5 -11 0 -14 -3 -6 -6z"/>
<path d="M6568 2563 c7 -3 16 -2 19 1 4 3 -2 6 -13 5 -11 0 -14 -3 -6 -6z"/>
<path d="M6608 2553 c7 -3 16 -2 19 1 4 3 -2 6 -13 5 -11 0 -14 -3 -6 -6z"/>
</g>
</svg>
